<?xml version="1.0" encoding="utf-8"?>
<!-- Generator: Adobe Illustrator 27.5.0, SVG Export Plug-In . SVG Version: 6.00 Build 0)  -->
<svg version="1.1" xmlns="http://www.w3.org/2000/svg" xmlns:xlink="http://www.w3.org/1999/xlink" x="0px" y="0px"
	 viewBox="0 0 750 500" style="enable-background:new 0 0 750 500;" xml:space="preserve">
<g id="BACKGROUND">
	<linearGradient id="SVGID_1_" gradientUnits="userSpaceOnUse" x1="-1.000000e-04" y1="249.9952" x2="749.9999" y2="249.9952">
		<stop  offset="0" style="stop-color:#7E66FA"/>
		<stop  offset="1" style="stop-color:#929BFA"/>
	</linearGradient>
	<rect x="0" y="-0.005" style="fill:url(#SVGID_1_);" width="750" height="500"/>
</g>
<g id="OBJECTS">
	<rect x="29.542" y="19.69" style="fill:#DFE4F4;" width="690.917" height="460.611"/>
	<g>
		<rect x="156.117" y="19.69" style="fill:#FFFFFF;" width="564.341" height="52.196"/>
		<g>
			<g>
				<text transform="matrix(1 0 0 1 191.5757 51.0581)" style="fill:#2F2643; font-family:'Rubik-Medium'; font-size:14.7396px;">MY DASHBOARD</text>
			</g>
			<g>
				<g>
					<path style="fill:none;stroke:#9FA6B7;stroke-width:2;stroke-miterlimit:10;" d="M697.759,45.632
						c0,3.556-1.446,6.78-3.777,9.12c-2.34,2.331-5.564,3.777-9.12,3.777H575.237c-7.121,0-12.897-5.776-12.897-12.897
						c0-3.556,1.446-6.78,3.777-9.12c2.34-2.331,5.564-3.777,9.12-3.777h109.625C691.983,32.734,697.759,38.51,697.759,45.632z"/>
					<path style="fill:#8474F8;" d="M697.759,45.632c0,3.556-1.446,6.78-3.777,9.12c-2.34,2.331-5.564,3.777-9.12,3.777h-22.109
						V32.734h22.109C691.983,32.734,697.759,38.51,697.759,45.632z"/>
				</g>
				<path style="fill:#FFFFFF;" d="M685.22,53.022l-3.993-6.151c0.882-0.78,1.561-1.811,1.904-3.029
					c0.95-3.375-1.016-6.881-4.392-7.831c-3.375-0.95-6.881,1.016-7.831,4.392c-0.95,3.375,1.017,6.881,4.392,7.831
					c1.401,0.394,2.822,0.28,4.076-0.223l4.021,6.194c0.327,0.503,1,0.647,1.503,0.32v0
					C685.403,54.199,685.547,53.526,685.22,53.022z M675.857,46.252c-2.28-0.642-3.609-3.011-2.967-5.291
					c0.642-2.28,3.01-3.609,5.291-2.967c2.281,0.642,3.609,3.011,2.968,5.291C680.507,45.566,678.138,46.894,675.857,46.252z"/>
			</g>
		</g>
	</g>
	<g>
		<rect x="29.542" y="19.69" style="fill:#2F2643;" width="138.119" height="460.611"/>
		<g>
			<rect x="29.542" y="57.119" style="opacity:0.39;fill:#564582;" width="138.119" height="64.946"/>
			<g>
				<path style="fill:#FCFCFA;" d="M76.302,89.592c0,5.941-2.549,11.29-6.612,15.023c-3.619,3.3-8.433,5.315-13.725,5.315
					c-5.144,0-9.833-1.912-13.418-5.053c-4.245-3.722-6.92-9.196-6.92-15.285c0-11.233,9.105-20.338,20.338-20.338
					S76.302,78.36,76.302,89.592z"/>
				<g>
					
						<ellipse transform="matrix(0.2298 -0.9732 0.9732 0.2298 -38.9472 120.1261)" style="fill:#8474F8;" cx="56.419" cy="84.669" rx="8.626" ry="8.626"/>
					<path style="fill:#8474F8;" d="M69.69,104.615c-3.619,3.3-8.433,5.315-13.725,5.315c-5.144,0-9.833-1.912-13.418-5.053
						c1.457-4.165,5.133-10.8,13.873-11.586c0,0,0.114-0.011,0.307-0.011C58.423,93.28,66.617,93.849,69.69,104.615z"/>
				</g>
			</g>
			<g>
				<text transform="matrix(1 0 0 1 84.0328 87.231)" style="fill:#FFFFFF; font-family:'Rubik-Bold'; font-size:11.8159px;">Emily Roses</text>
				<text transform="matrix(1 0 0 1 84.0328 99.4561)" style="fill:#A399BF; font-family:'Rubik-Regular'; font-size:12.7217px;">Admin.</text>
			</g>
		</g>
		<g>
			<g style="opacity:0.51;">
				<text transform="matrix(1 0 0 1 83.188 187.4073)" style="fill:#FFFFFF; font-family:'Rubik-Light'; font-size:13.8183px;">Home</text>
				<g>
					<g>
						<g>
							<path style="fill:#FFFFFF;" d="M70.214,181.18l-6.416-4.698c-0.124-0.091-0.292-0.091-0.415,0l-6.416,4.698
								c-0.157,0.115-0.191,0.335-0.076,0.492c0.115,0.157,0.335,0.191,0.492,0.076l6.208-4.546l6.209,4.546
								c0.063,0.046,0.135,0.068,0.207,0.068c0.108,0,0.215-0.05,0.284-0.144C70.404,181.515,70.37,181.295,70.214,181.18z"/>
						</g>
					</g>
					<g>
						<g>
							<path style="fill:#FFFFFF;" d="M68.513,181.827c-0.194,0-0.352,0.157-0.352,0.352v5.598h-2.813v-3.056
								c0-0.97-0.789-1.759-1.759-1.759c-0.97,0-1.759,0.789-1.759,1.759v3.056h-2.814v-5.598c0-0.194-0.157-0.352-0.352-0.352
								c-0.194,0-0.352,0.158-0.352,0.352v5.95c0,0.194,0.158,0.352,0.352,0.352h3.517c0.185,0,0.336-0.143,0.35-0.324
								c0.001-0.008,0.001-0.017,0.001-0.027v-3.408c0-0.582,0.473-1.055,1.055-1.055c0.582,0,1.055,0.473,1.055,1.055v3.408
								c0,0.01,0.001,0.019,0.001,0.027c0.014,0.182,0.165,0.325,0.35,0.325h3.517c0.194,0,0.352-0.158,0.352-0.352v-5.95
								C68.865,181.985,68.708,181.827,68.513,181.827z"/>
						</g>
					</g>
				</g>
			</g>
			<g style="opacity:0.51;">
				<text transform="matrix(1 0 0 1 83.188 221.6768)" style="fill:#FFFFFF; font-family:'Rubik-Light'; font-size:13.8183px;">Code</text>
				<g>
					<g>
						<g>
							<path style="fill:#FFFFFF;" d="M64.883,210.653l-0.554-0.152c-0.071-0.024-0.141-0.016-0.21,0.022
								c-0.068,0.039-0.115,0.097-0.139,0.174l-3.333,11.535c-0.024,0.077-0.016,0.151,0.022,0.219
								c0.039,0.069,0.097,0.115,0.174,0.139l0.554,0.152c0.071,0.024,0.141,0.017,0.21-0.022c0.069-0.039,0.115-0.097,0.139-0.174
								l3.333-11.535c0.024-0.077,0.016-0.15-0.022-0.219C65.018,210.723,64.96,210.677,64.883,210.653z"/>
							<path style="fill:#FFFFFF;" d="M59.889,212.905c0-0.077-0.03-0.146-0.089-0.206l-0.447-0.447
								c-0.06-0.06-0.128-0.089-0.206-0.089c-0.077,0-0.146,0.03-0.206,0.089l-4.163,4.163c-0.06,0.06-0.089,0.128-0.089,0.206
								c0,0.077,0.03,0.146,0.089,0.206l4.163,4.163c0.06,0.06,0.128,0.089,0.206,0.089c0.077,0,0.146-0.03,0.206-0.089l0.447-0.447
								c0.06-0.059,0.089-0.128,0.089-0.206c0-0.077-0.03-0.146-0.089-0.205l-3.511-3.511l3.511-3.511
								C59.859,213.051,59.889,212.982,59.889,212.905z"/>
							<path style="fill:#FFFFFF;" d="M70.949,216.416l-4.164-4.163c-0.06-0.06-0.128-0.089-0.205-0.089
								c-0.077,0-0.146,0.03-0.205,0.089l-0.447,0.447c-0.06,0.06-0.089,0.128-0.089,0.205s0.03,0.146,0.089,0.206l3.511,3.511
								l-3.511,3.511c-0.06,0.06-0.089,0.128-0.089,0.205c0,0.078,0.03,0.146,0.089,0.206l0.447,0.446
								c0.06,0.06,0.128,0.089,0.205,0.089c0.077,0,0.146-0.03,0.205-0.089l4.164-4.163c0.059-0.06,0.089-0.128,0.089-0.206
								C71.039,216.544,71.009,216.475,70.949,216.416z"/>
						</g>
					</g>
				</g>
			</g>
			<g style="opacity:0.51;">
				<text transform="matrix(1 0 0 1 83.188 255.9458)" style="fill:#FFFFFF; font-family:'Rubik-Light'; font-size:13.8183px;">Media</text>
				<g>
					<g>
						<g>
							<path style="fill:#FFFFFF;" d="M55.554,248.259v6.601c0,1.008,0.818,1.826,1.826,1.826h11.309
								c1.007,0,1.826-0.818,1.826-1.826v-6.601c0-0.959-0.779-1.737-1.737-1.737h-2.43l-0.058-0.253
								c-0.235-1.017-1.13-1.725-2.174-1.725h-2.165c-1.041,0-1.936,0.708-2.174,1.725l-0.058,0.253h-2.427
								C56.333,246.522,55.554,247.303,55.554,248.259z M60.018,247.27c0.174,0,0.324-0.119,0.363-0.29l0.125-0.544
								c0.159-0.675,0.751-1.145,1.444-1.145h2.165c0.693,0,1.285,0.47,1.444,1.145l0.125,0.544c0.04,0.168,0.189,0.29,0.363,0.29
								h2.727c0.547,0,0.989,0.443,0.989,0.989v6.601c0,0.595-0.482,1.078-1.078,1.078H57.38c-0.595,0-1.078-0.482-1.078-1.078
								v-6.601c0-0.547,0.443-0.989,0.989-0.989H60.018L60.018,247.27z"/>
							<path style="fill:#FFFFFF;" d="M58.085,248.366c0.277,0,0.501,0.224,0.501,0.501c0,0.277-0.224,0.501-0.501,0.501
								c-0.277,0-0.501-0.224-0.501-0.501C57.585,248.59,57.809,248.366,58.085,248.366z"/>
							<path style="fill:#FFFFFF;" d="M63.035,254.766c1.731,0,3.142-1.411,3.142-3.142s-1.411-3.142-3.142-3.142
								c-1.731,0-3.142,1.408-3.142,3.142C59.893,253.358,61.304,254.766,63.035,254.766z M63.035,249.23
								c1.319,0,2.394,1.075,2.394,2.394s-1.075,2.394-2.394,2.394s-2.394-1.075-2.394-2.394S61.716,249.23,63.035,249.23z"/>
						</g>
					</g>
				</g>
			</g>
			<g style="opacity:0.51;">
				<text transform="matrix(1 0 0 1 83.188 290.2154)" style="fill:#FFFFFF; font-family:'Rubik-Light'; font-size:13.8183px;">Chat</text>
				<g>
					<g>
						<g>
							<path style="fill:#FFFFFF;" d="M67.362,280.868c-1.154-1.154-2.686-1.79-4.318-1.79c-1.632,0-3.164,0.635-4.318,1.79
								c-2.231,2.231-2.386,5.803-0.385,8.213c-0.196,0.395-0.511,0.855-0.979,1.085c-0.225,0.111-0.351,0.351-0.313,0.599
								c0.039,0.248,0.23,0.442,0.478,0.48c0.116,0.018,0.282,0.036,0.483,0.036c0.54,0,1.335-0.126,2.149-0.713
								c0.906,0.488,1.898,0.726,2.882,0.726c1.581,0,3.146-0.612,4.323-1.79c1.154-1.154,1.79-2.686,1.79-4.318
								S68.517,282.023,67.362,280.868z M66.869,289.012c-1.743,1.743-4.442,2.089-6.565,0.842
								c-0.139-0.083-0.312-0.057-0.424,0.054c-0.01,0.005-0.021,0.013-0.028,0.021c-0.7,0.542-1.387,0.656-1.841,0.656h-0.003
								c0.524-0.382,0.855-0.951,1.049-1.392c0.031-0.075,0.036-0.152,0.018-0.225c-0.008-0.07-0.036-0.139-0.085-0.196
								c-1.89-2.136-1.792-5.39,0.227-7.41c2.11-2.11,5.542-2.11,7.65,0C68.979,283.472,68.979,286.901,66.869,289.012z"/>
							<circle style="fill:#FFFFFF;" cx="63.044" cy="285.186" r="0.429"/>
							<path style="fill:#FFFFFF;" d="M65.255,284.758c0.237,0,0.429,0.192,0.429,0.429c0,0.237-0.192,0.429-0.429,0.429
								c-0.237,0-0.429-0.192-0.429-0.429C64.826,284.95,65.018,284.758,65.255,284.758z"/>
							<path style="fill:#FFFFFF;" d="M60.833,284.758c0.237,0,0.429,0.192,0.429,0.429c0,0.237-0.192,0.429-0.429,0.429
								c-0.237,0-0.429-0.192-0.429-0.429C60.405,284.95,60.597,284.758,60.833,284.758z"/>
						</g>
					</g>
				</g>
			</g>
			<g style="opacity:0.51;">
				<text transform="matrix(1 0 0 1 83.188 358.7544)" style="fill:#FFFFFF; font-family:'Rubik-Light'; font-size:13.8183px;">Setting</text>
				<g>
					<g>
						<g>
							<g>
								<path style="fill:#FFFFFF;" d="M67.671,351.606l-0.928-0.157c-0.097-0.312-0.221-0.613-0.373-0.901l0.547-0.765
									c0.232-0.326,0.196-0.771-0.089-1.053l-0.824-0.823c-0.155-0.155-0.359-0.24-0.577-0.24c-0.171,0-0.334,0.053-0.473,0.152
									l-0.768,0.547c-0.298-0.157-0.611-0.287-0.934-0.384l-0.155-0.918c-0.066-0.395-0.406-0.682-0.807-0.682h-1.163
									c-0.401,0-0.741,0.287-0.807,0.682l-0.16,0.94c-0.31,0.097-0.611,0.224-0.898,0.378l-0.76-0.547
									c-0.138-0.099-0.304-0.152-0.475-0.152c-0.218,0-0.425,0.086-0.577,0.24l-0.826,0.823c-0.282,0.282-0.321,0.727-0.088,1.053
									l0.553,0.776c-0.152,0.29-0.274,0.591-0.368,0.904l-0.918,0.155c-0.395,0.066-0.682,0.406-0.682,0.807v1.163
									c0,0.401,0.287,0.74,0.682,0.807l0.94,0.16c0.097,0.309,0.224,0.611,0.379,0.898l-0.544,0.757
									c-0.232,0.326-0.196,0.771,0.088,1.053l0.824,0.823c0.155,0.155,0.359,0.24,0.577,0.24c0.171,0,0.334-0.053,0.473-0.152
									l0.777-0.553c0.279,0.146,0.572,0.265,0.873,0.359l0.155,0.928c0.066,0.395,0.406,0.683,0.807,0.683h1.166
									c0.401,0,0.741-0.288,0.807-0.683l0.158-0.928c0.312-0.097,0.613-0.221,0.901-0.373l0.765,0.547
									c0.138,0.099,0.304,0.152,0.475,0.152l0,0c0.218,0,0.423-0.086,0.577-0.24l0.824-0.824c0.282-0.282,0.321-0.727,0.088-1.053
									l-0.547-0.768c0.152-0.29,0.279-0.592,0.373-0.901l0.928-0.155c0.395-0.066,0.683-0.406,0.683-0.807v-1.163
									C68.354,352.013,68.066,351.673,67.671,351.606z M67.607,353.577c0,0.036-0.025,0.066-0.061,0.072l-1.161,0.193
									c-0.146,0.025-0.263,0.133-0.298,0.274c-0.105,0.406-0.265,0.796-0.481,1.158c-0.075,0.127-0.069,0.285,0.017,0.406
									l0.683,0.962c0.019,0.028,0.017,0.069-0.008,0.094l-0.824,0.823c-0.019,0.019-0.039,0.022-0.052,0.022
									c-0.017,0-0.03-0.006-0.042-0.014l-0.959-0.682c-0.119-0.086-0.279-0.091-0.406-0.017c-0.362,0.216-0.752,0.376-1.158,0.481
									c-0.144,0.036-0.252,0.155-0.274,0.298l-0.196,1.161c-0.006,0.036-0.036,0.061-0.072,0.061h-1.163
									c-0.036,0-0.066-0.025-0.072-0.061l-0.193-1.161c-0.025-0.146-0.133-0.262-0.274-0.298c-0.395-0.102-0.777-0.26-1.133-0.464
									c-0.058-0.033-0.124-0.05-0.188-0.05c-0.075,0-0.152,0.022-0.215,0.069l-0.967,0.688c-0.014,0.008-0.028,0.014-0.042,0.014
									c-0.011,0-0.033-0.003-0.053-0.022l-0.823-0.823c-0.025-0.025-0.028-0.064-0.008-0.094l0.68-0.953
									c0.086-0.122,0.091-0.282,0.017-0.409c-0.216-0.359-0.381-0.749-0.486-1.155c-0.039-0.141-0.155-0.249-0.299-0.274
									l-1.169-0.199c-0.036-0.005-0.061-0.036-0.061-0.072v-1.163c0-0.036,0.025-0.066,0.061-0.072l1.152-0.193
									c0.146-0.025,0.265-0.133,0.301-0.276c0.102-0.406,0.26-0.799,0.473-1.161c0.075-0.127,0.066-0.285-0.019-0.403
									l-0.688-0.967c-0.019-0.028-0.017-0.069,0.008-0.094l0.823-0.823c0.019-0.019,0.039-0.022,0.052-0.022
									c0.017,0,0.03,0.005,0.042,0.014l0.953,0.68c0.122,0.086,0.282,0.091,0.409,0.016c0.359-0.215,0.749-0.381,1.155-0.486
									c0.141-0.039,0.249-0.155,0.274-0.298l0.199-1.169c0.005-0.036,0.036-0.061,0.072-0.061h1.163
									c0.036,0,0.066,0.025,0.072,0.061l0.193,1.152c0.025,0.147,0.133,0.265,0.276,0.301c0.417,0.105,0.815,0.268,1.186,0.486
									c0.127,0.075,0.285,0.069,0.406-0.017l0.953-0.685c0.014-0.008,0.028-0.014,0.042-0.014c0.011,0,0.033,0.003,0.052,0.022
									l0.824,0.823c0.025,0.025,0.028,0.064,0.008,0.094l-0.683,0.959c-0.086,0.119-0.091,0.279-0.017,0.406
									c0.215,0.362,0.376,0.752,0.481,1.158c0.036,0.144,0.155,0.251,0.299,0.274l1.161,0.196
									c0.036,0.005,0.061,0.036,0.061,0.072v1.163H67.607z"/>
								<path style="fill:#FFFFFF;" d="M61.735,350.139c-1.575,0-2.854,1.28-2.854,2.855c0,1.575,1.279,2.855,2.854,2.855
									c1.575,0,2.855-1.28,2.855-2.855C64.59,351.418,63.31,350.139,61.735,350.139z M61.735,355.102
									c-1.163,0-2.109-0.945-2.109-2.108s0.945-2.108,2.109-2.108c1.164,0,2.109,0.945,2.109,2.108S62.899,355.102,61.735,355.102
									z"/>
							</g>
						</g>
					</g>
				</g>
			</g>
			<g style="opacity:0.51;">
				<text transform="matrix(1 0 0 1 83.189 323.4038)" style="fill:#FFFFFF; font-family:'Rubik-Light'; font-size:13.8183px;">App</text>
				<path style="fill:#FFFFFF;" d="M63.256,311.908l1.625,3.294c0.065,0.132,0.192,0.224,0.337,0.245l3.635,0.528
					c0.367,0.053,0.514,0.505,0.248,0.764l-2.63,2.564c-0.105,0.103-0.154,0.251-0.129,0.396l0.621,3.62
					c0.063,0.366-0.321,0.645-0.65,0.472l-3.251-1.709c-0.131-0.069-0.287-0.069-0.417,0l-3.251,1.709
					c-0.329,0.173-0.713-0.106-0.65-0.472l0.621-3.62c0.025-0.145-0.023-0.294-0.129-0.396l-2.63-2.564
					c-0.266-0.259-0.119-0.711,0.248-0.764l3.635-0.528c0.146-0.021,0.272-0.113,0.337-0.245l1.625-3.294
					C62.616,311.575,63.091,311.575,63.256,311.908z"/>
			</g>
		</g>
		<g style="opacity:0.5;">
			
				<linearGradient id="SVGID_00000082331374866714361010000002216234876932806047_" gradientUnits="userSpaceOnUse" x1="37.2429" y1="193.3953" x2="158.8442" y2="193.3953">
				<stop  offset="0" style="stop-color:#7E66FA"/>
				<stop  offset="1" style="stop-color:#929BFA"/>
			</linearGradient>
			
				<rect x="37.243" y="192.935" style="fill:url(#SVGID_00000082331374866714361010000002216234876932806047_);" width="121.601" height="0.921"/>
			
				<linearGradient id="SVGID_00000011736424247703014980000001601367744752115645_" gradientUnits="userSpaceOnUse" x1="37.2429" y1="226.0987" x2="158.8442" y2="226.0987">
				<stop  offset="0" style="stop-color:#7E66FA"/>
				<stop  offset="1" style="stop-color:#929BFA"/>
			</linearGradient>
			
				<rect x="37.243" y="225.638" style="fill:url(#SVGID_00000011736424247703014980000001601367744752115645_);" width="121.601" height="0.921"/>
			
				<linearGradient id="SVGID_00000103966651987898248160000004346374146184965536_" gradientUnits="userSpaceOnUse" x1="37.2429" y1="261.5657" x2="158.8442" y2="261.5657">
				<stop  offset="0" style="stop-color:#7E66FA"/>
				<stop  offset="1" style="stop-color:#929BFA"/>
			</linearGradient>
			
				<rect x="37.243" y="261.105" style="fill:url(#SVGID_00000103966651987898248160000004346374146184965536_);" width="121.601" height="0.921"/>
			
				<linearGradient id="SVGID_00000173144006512096595010000014440959712637915306_" gradientUnits="userSpaceOnUse" x1="37.2429" y1="295.1904" x2="158.8442" y2="295.1904">
				<stop  offset="0" style="stop-color:#7E66FA"/>
				<stop  offset="1" style="stop-color:#929BFA"/>
			</linearGradient>
			
				<rect x="37.243" y="294.73" style="fill:url(#SVGID_00000173144006512096595010000014440959712637915306_);" width="121.601" height="0.921"/>
			
				<linearGradient id="SVGID_00000051350042540327128240000003444614872350865073_" gradientUnits="userSpaceOnUse" x1="37.2429" y1="329.7362" x2="158.8442" y2="329.7362">
				<stop  offset="0" style="stop-color:#7E66FA"/>
				<stop  offset="1" style="stop-color:#929BFA"/>
			</linearGradient>
			
				<rect x="37.243" y="329.276" style="fill:url(#SVGID_00000051350042540327128240000003444614872350865073_);" width="121.601" height="0.921"/>
			
				<linearGradient id="SVGID_00000007392745095540183720000000443110640729237908_" gradientUnits="userSpaceOnUse" x1="37.2429" y1="365.6639" x2="158.8442" y2="365.6639">
				<stop  offset="0" style="stop-color:#7E66FA"/>
				<stop  offset="1" style="stop-color:#929BFA"/>
			</linearGradient>
			
				<rect x="37.243" y="365.203" style="fill:url(#SVGID_00000007392745095540183720000000443110640729237908_);" width="121.601" height="0.921"/>
		</g>
	</g>
	<g>
		<g>
			<g>
				<rect x="196.647" y="140.576" style="fill:#FFFFFF;" width="93.25" height="33.934"/>
				<g>
					<g>
						
							<linearGradient id="SVGID_00000140720258801470095410000010747350356554239388_" gradientUnits="userSpaceOnUse" x1="310.8211" y1="94.1623" x2="190.9281" y2="150.2526">
							<stop  offset="0" style="stop-color:#7E66FA"/>
							<stop  offset="1" style="stop-color:#929BFA"/>
						</linearGradient>
						
							<rect x="196.647" y="114.196" style="fill:url(#SVGID_00000140720258801470095410000010747350356554239388_);" width="93.25" height="23.137"/>
						<text transform="matrix(1 0 0 1 222.2242 128.8809)" style="fill:#FFFFFF; font-family:'Rubik-Bold'; font-size:10.3886px;">VISITOR</text>
					</g>
					<g>
						<text transform="matrix(1 0 0 1 209.9683 164.2119)" style="fill:#2F2643; font-family:'Rubik-Light'; font-size:20.8889px;">2.150</text>
						<polygon style="fill:#2F2643;" points="269.407,150.823 262.238,163.24 276.576,163.24 						"/>
					</g>
				</g>
			</g>
			<g>
				<rect x="310.54" y="140.574" style="fill:#FFFFFF;" width="117.089" height="33.935"/>
				<rect x="310.54" y="140.574" style="fill:#FFFFFF;" width="117.089" height="33.935"/>
				<g>
					<g>
						
							<linearGradient id="SVGID_00000106866908251654470780000000729316670337603458_" gradientUnits="userSpaceOnUse" x1="452.1079" y1="86.9238" x2="304.7531" y2="155.8618">
							<stop  offset="0" style="stop-color:#7E66FA"/>
							<stop  offset="1" style="stop-color:#929BFA"/>
						</linearGradient>
						
							<rect x="310.543" y="114.196" style="fill:url(#SVGID_00000106866908251654470780000000729316670337603458_);" width="117.089" height="23.137"/>
						<g>
							<text transform="matrix(1 0 0 1 323.981 128.8809)" style="fill:#FFFFFF; font-family:'Rubik-Bold'; font-size:10.3886px;">REGISTRED USER</text>
						</g>
					</g>
					<g>
						<text transform="matrix(1 0 0 1 335.4331 164.2119)" style="fill:#2F2643; font-family:'Rubik-Light'; font-size:20.8889px;">1.430</text>
						<polygon style="fill:#2F2643;" points="395.572,150.823 388.404,163.24 402.741,163.24 						"/>
					</g>
				</g>
			</g>
			<g>
				<rect x="448.275" y="140.574" style="fill:#FFFFFF;" width="93.25" height="33.935"/>
				<rect x="448.275" y="140.574" style="fill:#FFFFFF;" width="93.25" height="33.935"/>
				<g>
					<g>
						
							<linearGradient id="SVGID_00000159459520934786785850000007397612057239888305_" gradientUnits="userSpaceOnUse" x1="562.447" y1="94.1623" x2="442.5538" y2="150.2526">
							<stop  offset="0" style="stop-color:#7E66FA"/>
							<stop  offset="1" style="stop-color:#929BFA"/>
						</linearGradient>
						
							<rect x="448.273" y="114.196" style="fill:url(#SVGID_00000159459520934786785850000007397612057239888305_);" width="93.25" height="23.137"/>
						<g>
							<text transform="matrix(1 0 0 1 455.4898 128.8809)" style="fill:#FFFFFF; font-family:'Rubik-Bold'; font-size:10.3886px;">MONTLY SALES</text>
						</g>
					</g>
					<g>
						<text transform="matrix(1 0 0 1 467.9038 164.2119)" style="fill:#2F2643; font-family:'Rubik-Light'; font-size:20.8889px;">250</text>
						<polygon style="fill:#2F2643;" points="514.723,163.86 507.554,151.444 521.891,151.444 						"/>
					</g>
				</g>
			</g>
		</g>
		<g>
			<rect x="196.647" y="200.443" style="fill:#FFFFFF;" width="344.878" height="97.19"/>
			<g>
				<g>
					<g>
						<text transform="matrix(1 0 0 1 206.2222 218.4742)" style="fill:#2F2643; font-family:'Rubik-Medium'; font-size:9.8585px;">OPTION 1</text>
					</g>
					<path style="fill:#DFE4F4;" d="M528.744,230.995H210.887c-2.208,0-3.998-1.79-3.998-3.998l0,0c0-2.208,1.79-3.998,3.998-3.998
						h317.857c2.208,0,3.998,1.79,3.998,3.998l0,0C532.743,229.206,530.953,230.995,528.744,230.995z"/>
					
						<linearGradient id="SVGID_00000008122021766567146400000002996825945506876816_" gradientUnits="userSpaceOnUse" x1="206.8892" y1="226.9973" x2="354.8226" y2="226.9973">
						<stop  offset="0" style="stop-color:#7E66FA"/>
						<stop  offset="1" style="stop-color:#929BFA"/>
					</linearGradient>
					<path style="fill:url(#SVGID_00000008122021766567146400000002996825945506876816_);" d="M354.823,222.999v7.996H210.887
						c-2.208,0-3.998-1.79-3.998-3.998l0,0c0-2.208,1.79-3.998,3.998-3.998H354.823z"/>
				</g>
				<g>
					<g>
						<text transform="matrix(1 0 0 1 206.2222 246.4619)" style="fill:#2F2643; font-family:'Rubik-Medium'; font-size:9.8585px;">OPTION 1</text>
					</g>
					<path style="fill:#DFE4F4;" d="M528.744,258.983H210.887c-2.208,0-3.998-1.79-3.998-3.998l0,0c0-2.208,1.79-3.998,3.998-3.998
						h317.857c2.208,0,3.998,1.79,3.998,3.998l0,0C532.743,257.193,530.953,258.983,528.744,258.983z"/>
					
						<linearGradient id="SVGID_00000021105484940504684220000013074873827351358894_" gradientUnits="userSpaceOnUse" x1="206.8892" y1="254.9848" x2="420.793" y2="254.9848">
						<stop  offset="0" style="stop-color:#7E66FA"/>
						<stop  offset="1" style="stop-color:#929BFA"/>
					</linearGradient>
					<path style="fill:url(#SVGID_00000021105484940504684220000013074873827351358894_);" d="M420.793,250.987v7.996H210.887
						c-2.208,0-3.998-1.79-3.998-3.998l0,0c0-2.208,1.79-3.998,3.998-3.998H420.793z"/>
				</g>
				<g>
					<g>
						<text transform="matrix(1 0 0 1 206.2222 273.7827)" style="fill:#2F2643; font-family:'Rubik-Medium'; font-size:9.8585px;">OPTION 1</text>
					</g>
					<path style="fill:#DFE4F4;" d="M528.744,286.304H210.887c-2.208,0-3.998-1.79-3.998-3.998l0,0c0-2.208,1.79-3.998,3.998-3.998
						h317.857c2.208,0,3.998,1.79,3.998,3.998l0,0C532.743,284.514,530.953,286.304,528.744,286.304z"/>
					
						<linearGradient id="SVGID_00000067952503157087923290000000632556578215140760_" gradientUnits="userSpaceOnUse" x1="206.8892" y1="282.3058" x2="309.5097" y2="282.3058">
						<stop  offset="0" style="stop-color:#7E66FA"/>
						<stop  offset="1" style="stop-color:#929BFA"/>
					</linearGradient>
					<path style="fill:url(#SVGID_00000067952503157087923290000000632556578215140760_);" d="M309.51,278.308v7.996h-98.622
						c-2.206,0-3.998-1.792-3.998-3.998c0-1.106,0.446-2.106,1.173-2.825c0.72-0.726,1.719-1.173,2.825-1.173H309.51z"/>
				</g>
			</g>
		</g>
		<g>
			<rect x="196.647" y="326.512" style="fill:#FFFFFF;" width="202.089" height="117.916"/>
			<g>
				<text transform="matrix(1 0 0 1 209.8853 352.3062)" style="fill:#2F2643; font-family:'Rubik-Medium'; font-size:14.7396px;">CONTACTS</text>
			</g>
			
				<linearGradient id="SVGID_00000051360040176991697740000003343886763600916645_" gradientUnits="userSpaceOnUse" x1="206.2002" y1="356.9123" x2="395.9721" y2="356.9123">
				<stop  offset="0" style="stop-color:#7E66FA"/>
				<stop  offset="1" style="stop-color:#929BFA"/>
			</linearGradient>
			
				<rect x="206.2" y="355.991" style="fill:url(#SVGID_00000051360040176991697740000003343886763600916645_);" width="189.772" height="1.842"/>
			<g>
				<g>
					<path style="fill:#DFE4F4;" d="M230.072,376.954c0,3.331-1.429,6.329-3.707,8.422c-2.029,1.85-4.728,2.98-7.695,2.98
						c-2.884,0-5.513-1.072-7.523-2.833c-2.38-2.086-3.879-5.155-3.879-8.569c0-6.298,5.104-11.402,11.402-11.402
						C224.967,365.552,230.072,370.657,230.072,376.954z"/>
					<g>
						<path style="fill:#17B7E7;" d="M223.761,374.194c0,2.671-2.165,4.836-4.836,4.836c-2.671,0-4.836-2.165-4.836-4.836
							s2.165-4.836,4.836-4.836C221.596,369.358,223.761,371.523,223.761,374.194z"/>
						<path style="fill:#17B7E7;" d="M226.365,385.377c-2.029,1.85-4.728,2.98-7.695,2.98c-2.884,0-5.513-1.072-7.523-2.833
							c0.817-2.335,2.878-6.055,7.778-6.495c0,0,0.064-0.006,0.172-0.006C220.048,379.022,224.642,379.341,226.365,385.377z"/>
					</g>
				</g>
				<g>
					<text transform="matrix(1 0 0 1 241.2066 376.7261)" style="fill:#2F2643; font-family:'Rubik-Medium'; font-size:13.2208px;">Jhon Ross</text>
					<rect x="241.207" y="379.943" style="fill:none;" width="97.65" height="16.582"/>
					<text transform="matrix(1 0 0 1 241.2066 386.4839)" style="fill:#818691; font-family:'Rubik-Light'; font-size:9.2122px;">Lorem ipsum</text>
				</g>
			</g>
			<g>
				<g>
					<path style="fill:#DFE4F4;" d="M230.072,414.724c0,3.331-1.429,6.329-3.707,8.422c-2.029,1.85-4.728,2.98-7.695,2.98
						c-2.884,0-5.513-1.072-7.523-2.833c-2.38-2.086-3.879-5.155-3.879-8.569c0-6.297,5.104-11.402,11.402-11.402
						C224.967,403.323,230.072,408.427,230.072,414.724z"/>
					<g>
						
							<linearGradient id="SVGID_00000039114024081420149700000002933041477465457055_" gradientUnits="userSpaceOnUse" x1="214.0885" y1="411.9641" x2="223.7608" y2="411.9641">
							<stop  offset="0" style="stop-color:#7E66FA"/>
							<stop  offset="1" style="stop-color:#929BFA"/>
						</linearGradient>
						<path style="fill:url(#SVGID_00000039114024081420149700000002933041477465457055_);" d="M223.761,411.964
							c0,2.671-2.165,4.836-4.836,4.836c-2.671,0-4.836-2.165-4.836-4.836c0-2.671,2.165-4.836,4.836-4.836
							C221.596,407.128,223.761,409.293,223.761,411.964z"/>
						
							<linearGradient id="SVGID_00000082326905410254671430000000009191521336174518_" gradientUnits="userSpaceOnUse" x1="211.1473" y1="421.459" x2="226.3647" y2="421.459">
							<stop  offset="0" style="stop-color:#7E66FA"/>
							<stop  offset="1" style="stop-color:#929BFA"/>
						</linearGradient>
						<path style="fill:url(#SVGID_00000082326905410254671430000000009191521336174518_);" d="M226.365,423.147
							c-2.029,1.85-4.728,2.98-7.695,2.98c-2.884,0-5.513-1.072-7.523-2.833c0.817-2.335,2.878-6.055,7.778-6.495
							c0,0,0.064-0.006,0.172-0.006C220.048,416.792,224.642,417.111,226.365,423.147z"/>
					</g>
				</g>
				<g>
					<text transform="matrix(1 0 0 1 241.2066 415.4175)" style="fill:#2F2643; font-family:'Rubik-Medium'; font-size:13.2208px;">Sofia Grace</text>
					<rect x="241.207" y="418.634" style="fill:none;" width="97.65" height="16.582"/>
					<text transform="matrix(1 0 0 1 241.2066 425.1753)" style="fill:#818691; font-family:'Rubik-Light'; font-size:9.2122px;">Lorem ipsum</text>
				</g>
			</g>
		</g>
		<g>
			<g>
				<rect x="415.537" y="326.512" style="fill:#FFFFFF;" width="130.724" height="117.916"/>
				<g>
					<path style="fill:#2F2643;" d="M429.653,339.409c0,1.257-1.019,2.276-2.276,2.276c-1.257,0-2.276-1.019-2.276-2.276
						c0-1.257,1.019-2.276,2.276-2.276C428.634,337.133,429.653,338.152,429.653,339.409z"/>
					<path style="fill:#2F2643;" d="M435.668,339.409c0,1.257-1.019,2.276-2.276,2.276c-1.257,0-2.276-1.019-2.276-2.276
						c0-1.257,1.019-2.276,2.276-2.276C434.649,337.133,435.668,338.152,435.668,339.409z"/>
					<path style="fill:#2F2643;" d="M441.683,339.409c0,1.257-1.019,2.276-2.276,2.276c-1.257,0-2.276-1.019-2.276-2.276
						c0-1.257,1.019-2.276,2.276-2.276C440.664,337.133,441.683,338.152,441.683,339.409z"/>
				</g>
			</g>
			<g>
				<path style="fill:#DFE4F4;" d="M518.209,377.64c0,20.608-16.702,37.31-37.309,37.31c-19.521,0-35.541-14.988-37.171-34.085
					c-0.092-1.069-0.138-2.137-0.138-3.224c0-20.608,16.702-37.31,37.31-37.31c10.087,0,19.244,4.007,25.96,10.52
					C513.861,357.622,518.209,367.129,518.209,377.64z"/>
				<path style="fill:#17B7E7;" d="M506.859,350.851l-23.657,30.014h-39.474c-0.092-1.069-0.138-2.137-0.138-3.224
					c0-20.608,16.702-37.31,37.31-37.31C490.987,340.33,500.144,344.338,506.859,350.851z"/>
			</g>
			<g>
				<text transform="matrix(1 0 0 1 452.8023 435.8843)" style="fill:#8F93FD; font-family:'Rubik-Medium'; font-size:13.6497px;">OPTION 2</text>
			</g>
		</g>
		<g>
			<g>
				<g>
					
						<linearGradient id="SVGID_00000080201806544654474230000004422622428511818647_" gradientUnits="userSpaceOnUse" x1="718.5867" y1="82.9726" x2="556.2415" y2="158.9236">
						<stop  offset="0" style="stop-color:#7E66FA"/>
						<stop  offset="1" style="stop-color:#929BFA"/>
					</linearGradient>
					
						<rect x="562.069" y="114.196" style="fill:url(#SVGID_00000080201806544654474230000004422622428511818647_);" width="130.101" height="23.137"/>
				</g>
				<g>
					<text transform="matrix(1 0 0 1 597.7935 129.8023)" style="fill:#FFFFFF; font-family:'Rubik-Bold'; font-size:10.3886px;">NOVEMBER</text>
				</g>
				<rect x="562.068" y="140.572" style="fill:#FFFFFF;" width="130.104" height="103.951"/>
				<g>
					<text transform="matrix(1 0 0 1 593.5338 208.6001)" style="fill:#2F2643; font-family:'Rubik-Light'; font-size:65.6343px;">13</text>
					<polygon style="fill:#2F2643;" points="680.529,188.09 668.113,195.259 668.113,180.922 					"/>
					<polygon style="fill:#2F2643;" points="570.463,188.09 582.88,180.922 582.88,195.259 					"/>
				</g>
				<text transform="matrix(1 0 0 1 606.0113 230.7051)" style="font-family:'Rubik-Light'; font-size:13.6497px;">Sunday</text>
			</g>
			<g>
				<rect x="562.068" y="270.317" style="fill:#FFFFFF;" width="130.104" height="34.085"/>
				<g>
					<text transform="matrix(1 0 0 1 587.2047 292.5308)" style="opacity:0.16; font-family:'Rubik-Light'; font-size:13.6497px;">OPTION 1</text>
					<g>
						<g>
							<g>
								<g>
									<path style="fill:#8F93FD;" d="M582.756,286.057l-0.929-0.157c-0.097-0.312-0.221-0.614-0.373-0.901l0.547-0.765
										c0.232-0.326,0.196-0.771-0.088-1.053l-0.823-0.824c-0.155-0.155-0.359-0.24-0.578-0.24c-0.171,0-0.334,0.052-0.473,0.152
										l-0.768,0.547c-0.298-0.158-0.611-0.287-0.934-0.384l-0.155-0.918c-0.066-0.395-0.406-0.682-0.807-0.682h-1.163
										c-0.401,0-0.741,0.287-0.807,0.682l-0.16,0.94c-0.309,0.097-0.611,0.224-0.898,0.379l-0.76-0.547
										c-0.138-0.099-0.304-0.152-0.475-0.152c-0.218,0-0.425,0.086-0.578,0.24l-0.826,0.824c-0.282,0.282-0.32,0.727-0.088,1.053
										l0.553,0.776c-0.152,0.29-0.274,0.591-0.368,0.904l-0.917,0.155c-0.395,0.066-0.683,0.406-0.683,0.807v1.163
										c0,0.401,0.287,0.741,0.683,0.807l0.94,0.16c0.097,0.31,0.224,0.611,0.379,0.898l-0.544,0.757
										c-0.232,0.326-0.196,0.771,0.088,1.053l0.824,0.824c0.155,0.155,0.359,0.24,0.578,0.24c0.171,0,0.334-0.052,0.473-0.152
										l0.776-0.553c0.279,0.146,0.572,0.265,0.873,0.359l0.155,0.928c0.066,0.395,0.406,0.682,0.807,0.682h1.166
										c0.401,0,0.741-0.287,0.807-0.682l0.158-0.928c0.312-0.097,0.613-0.221,0.901-0.373l0.765,0.547
										c0.138,0.099,0.304,0.152,0.475,0.152l0,0c0.218,0,0.423-0.086,0.578-0.24l0.823-0.824
										c0.282-0.282,0.321-0.727,0.089-1.053l-0.547-0.768c0.152-0.29,0.279-0.591,0.373-0.901l0.929-0.155
										c0.395-0.066,0.682-0.406,0.682-0.807v-1.163C583.439,286.464,583.152,286.124,582.756,286.057z M582.693,288.028
										c0,0.036-0.025,0.066-0.061,0.072l-1.161,0.193c-0.146,0.025-0.263,0.133-0.299,0.274
										c-0.105,0.406-0.265,0.796-0.481,1.158c-0.074,0.127-0.069,0.285,0.017,0.406l0.683,0.962
										c0.019,0.028,0.017,0.069-0.008,0.094l-0.823,0.824c-0.019,0.019-0.039,0.022-0.053,0.022c-0.017,0-0.03-0.005-0.041-0.014
										l-0.959-0.683c-0.119-0.086-0.279-0.091-0.406-0.017c-0.362,0.216-0.752,0.376-1.158,0.481
										c-0.144,0.036-0.251,0.155-0.274,0.299l-0.196,1.161c-0.005,0.036-0.036,0.061-0.072,0.061h-1.163
										c-0.036,0-0.066-0.025-0.072-0.061l-0.193-1.161c-0.025-0.147-0.133-0.263-0.274-0.299
										c-0.395-0.102-0.776-0.26-1.133-0.464c-0.058-0.033-0.124-0.05-0.188-0.05c-0.075,0-0.152,0.022-0.216,0.069l-0.967,0.688
										c-0.014,0.008-0.028,0.014-0.041,0.014c-0.011,0-0.033-0.003-0.052-0.022l-0.823-0.823
										c-0.025-0.025-0.028-0.064-0.008-0.094l0.68-0.953c0.086-0.122,0.091-0.282,0.017-0.409
										c-0.215-0.359-0.381-0.749-0.486-1.155c-0.039-0.141-0.155-0.249-0.298-0.274l-1.169-0.199
										c-0.036-0.005-0.061-0.036-0.061-0.072v-1.163c0-0.036,0.025-0.066,0.061-0.072l1.152-0.194
										c0.147-0.025,0.265-0.133,0.301-0.276c0.102-0.406,0.26-0.799,0.473-1.161c0.075-0.127,0.066-0.285-0.019-0.403
										l-0.688-0.967c-0.019-0.028-0.017-0.069,0.008-0.094l0.824-0.824c0.019-0.019,0.039-0.022,0.052-0.022
										c0.017,0,0.03,0.005,0.041,0.014l0.953,0.68c0.122,0.086,0.282,0.091,0.409,0.017c0.359-0.216,0.749-0.381,1.155-0.486
										c0.141-0.039,0.249-0.155,0.274-0.298l0.199-1.169c0.006-0.036,0.036-0.061,0.072-0.061h1.163
										c0.036,0,0.066,0.025,0.072,0.061l0.193,1.152c0.025,0.146,0.133,0.265,0.276,0.301c0.417,0.105,0.815,0.268,1.185,0.486
										c0.127,0.075,0.285,0.069,0.406-0.017l0.953-0.685c0.014-0.008,0.028-0.014,0.041-0.014c0.011,0,0.033,0.003,0.052,0.022
										l0.823,0.824c0.025,0.025,0.028,0.064,0.008,0.094l-0.683,0.959c-0.086,0.119-0.091,0.279-0.017,0.406
										c0.216,0.362,0.376,0.752,0.481,1.158c0.036,0.144,0.155,0.251,0.298,0.274l1.161,0.196
										c0.036,0.006,0.061,0.036,0.061,0.072v1.163H582.693z"/>
									<path style="fill:#8F93FD;" d="M576.821,284.59c-1.575,0-2.855,1.279-2.855,2.855c0,1.575,1.28,2.855,2.855,2.855
										c1.575,0,2.855-1.279,2.855-2.855C579.675,285.869,578.396,284.59,576.821,284.59z M576.821,289.553
										c-1.163,0-2.109-0.945-2.109-2.109c0-1.163,0.945-2.108,2.109-2.108s2.108,0.945,2.108,2.108
										C578.929,288.608,577.984,289.553,576.821,289.553z"/>
								</g>
							</g>
						</g>
					</g>
				</g>
			</g>
			<g>
				<g>
					<rect x="562.933" y="326.512" style="fill:#FFFFFF;" width="130.724" height="116.074"/>
				</g>
				<text transform="matrix(1 0 0 1 570.0826 345.9615)" style="fill:#8F93FD; font-family:'Rubik-Medium'; font-size:13.6497px;">OPTION 1</text>
				<g>
					<rect x="570.083" y="355.07" style="fill:none;" width="108.704" height="79.225"/>
					<text transform="matrix(1 0 0 1 570.0836 362.2642)"><tspan x="0" y="0" style="fill:#818691; font-family:'Rubik-Light'; font-size:10.1334px;">Lorem ipsum dolor sit </tspan><tspan x="0" y="11.055" style="fill:#818691; font-family:'Rubik-Light'; font-size:10.1334px;">amet, consectetuer </tspan><tspan x="0" y="22.109" style="fill:#818691; font-family:'Rubik-Light'; font-size:10.1334px;">adipiscing elit.</tspan><tspan x="0" y="44.219" style="fill:#818691; font-family:'Rubik-Light'; font-size:10.1334px;">Sed diam nonummy nibh </tspan><tspan x="0" y="55.273" style="fill:#818691; font-family:'Rubik-Light'; font-size:10.1334px;">euism.</tspan></text>
				</g>
			</g>
		</g>
	</g>
</g>
</svg>
